<?xml version="1.0" encoding="UTF-8" standalone="no"?>
<!-- Created with Inkscape (http://www.inkscape.org/) -->

<svg
   xmlns:dc="http://purl.org/dc/elements/1.1/"
   xmlns:cc="http://creativecommons.org/ns#"
   xmlns:rdf="http://www.w3.org/1999/02/22-rdf-syntax-ns#"
   xmlns:svg="http://www.w3.org/2000/svg"
   xmlns="http://www.w3.org/2000/svg"
   xmlns:sodipodi="http://sodipodi.sourceforge.net/DTD/sodipodi-0.dtd"
   xmlns:inkscape="http://www.inkscape.org/namespaces/inkscape"
   width="128"
   height="128"
   id="svg2"
   version="1.1"
   inkscape:version="0.48.4 r9939"
   sodipodi:docname="bigjay.svg"
   inkscape:export-filename="C:\Users\kevin\workspace\JayWalker\src\org\compbox\jaywalker\gui\assets\bigjay.png"
   inkscape:export-xdpi="90"
   inkscape:export-ydpi="90">
  <title
     id="title3781">Big Jay Icon</title>
  <defs
     id="defs4" />
  <sodipodi:namedview
     id="base"
     pagecolor="#000000"
     bordercolor="#666666"
     borderopacity="1.0"
     inkscape:pageopacity="0"
     inkscape:pageshadow="2"
     inkscape:zoom="1.979899"
     inkscape:cx="11.253934"
     inkscape:cy="85.881128"
     inkscape:document-units="px"
     inkscape:current-layer="g3007"
     showgrid="false"
     inkscape:window-width="1024"
     inkscape:window-height="716"
     inkscape:window-x="-8"
     inkscape:window-y="22"
     inkscape:window-maximized="1" />
  <metadata
     id="metadata7">
    <rdf:RDF>
      <cc:Work
         rdf:about="">
        <dc:format>image/svg+xml</dc:format>
        <dc:type
           rdf:resource="http://purl.org/dc/dcmitype/StillImage" />
        <dc:title>Big Jay Icon</dc:title>
      </cc:Work>
    </rdf:RDF>
  </metadata>
  <g
     inkscape:label="Layer 1"
     inkscape:groupmode="layer"
     id="layer1"
     transform="translate(0,-924.36218)">
    <g
       style="font-size:10px;font-style:normal;font-variant:normal;font-weight:normal;font-stretch:normal;line-height:125%;letter-spacing:0px;word-spacing:0px;fill:#000000;fill-opacity:1;stroke:none;font-family:Nyala;-inkscape-font-specification:Nyala"
       id="text2985"
       transform="translate(-0.89285714,-8.3928572)">
      <g
         id="g3007"
         transform="matrix(1.5135516,0,0,1.5135516,-27.091716,-509.79701)"
         style="fill:#e3009a;fill-opacity:1">
        <path
           inkscape:connector-curvature="0"
           d="m 88.287102,970.2143 c 0.581381,0.65636 1.026806,1.38312 1.336277,2.18027 0.309448,0.79715 0.464143,1.64566 0.464201,2.54602 -1.8e-5,1.21877 -0.23917,2.32556 -0.717365,3.31937 -0.478258,0.99381 -1.153439,1.84733 -2.025514,2.5598 -0.872111,0.71273 -1.908308,1.26637 -3.108596,1.65994 -1.200313,0.39181 -2.52252,0.59122 -3.966622,0.59122 -1.181559,0 -2.147426,-0.12025 -2.897607,-0.363 -0.281332,0.35724 -0.55794,0.71273 -0.829898,1.06871 -0.271941,0.35724 -0.40791,0.7225 -0.40791,1.09753 -5e-6,0.44943 0.257882,0.8014 0.773637,1.05493 0.515765,0.25352 1.144029,0.44367 1.884847,0.57669 0.740802,0.13278 1.523813,0.21294 2.349031,0.25353 0.825194,0.0576 1.556628,0.0576 2.194301,0.0576 1.144028,0 2.283372,0.0752 3.418049,0.22546 1.134644,0.15032 2.152088,0.42063 3.052332,0.81594 0.900209,0.39156 1.631643,0.93795 2.194305,1.63163 0.562608,0.69419 0.843938,1.58478 0.84396,2.67254 -2.2e-5,1.03188 -0.239145,1.98385 -0.717368,2.85541 -0.47826,0.8723 -1.101861,1.66444 -1.870785,2.37717 -0.768962,0.71272 -1.64574,1.34604 -2.630351,1.89893 -0.984636,0.55315 -1.992701,1.01311 -3.024196,1.37891 -1.031526,0.363 -2.039588,0.6423 -3.024199,0.8297 -0.984636,0.1904 -1.852042,0.2823 -2.602218,0.2823 -0.881485,0 -1.819219,-0.1202 -2.813212,-0.363 -0.994005,-0.243 -1.908295,-0.6097 -2.742878,-1.0975 -0.834586,-0.48979 -1.528512,-1.09254 -2.081773,-1.81453 -0.553273,-0.72175 -0.829898,-1.5705 -0.829898,-2.54577 0,-0.58146 0.09845,-1.13961 0.295392,-1.67372 0.196932,-0.53586 0.454809,-1.06019 0.773629,-1.57576 0.31884,-0.51281 0.693921,-1.02688 1.125282,-1.53318 0.431358,-0.50705 0.881467,-1.02211 1.350338,-1.54695 -0.262548,-0.13277 -0.511098,-0.31114 -0.745496,-0.53586 -0.234435,-0.22547 -0.436028,-0.47248 -0.604842,-0.74554 -0.168825,-0.27081 -0.304781,-0.54739 -0.407912,-0.82972 -0.103189,-0.28233 -0.154745,-0.55289 -0.154745,-0.81569 0,-0.58195 0.262548,-1.23355 0.7877,-1.95555 0.525098,-0.72174 1.387841,-1.6454 2.588154,-2.77123 -1.294087,-0.65611 -2.302149,-1.566 -3.024204,-2.72865 -0.72206,-1.16266 -1.083085,-2.45659 -1.083085,-3.88204 0,-1.1817 0.239095,-2.26469 0.71737,-3.24948 0.478258,-0.98454 1.153408,-1.82377 2.025509,-2.51771 0.872088,-0.69394 1.903601,-1.23305 3.094534,-1.6176 1.190914,-0.3843 2.508431,-0.57669 3.952556,-0.57669 1.12527,0 2.166157,0.14029 3.122663,0.42162 0.956475,0.28133 1.800435,0.66588 2.531887,1.15364 1.819189,-0.46897 3.24455,-0.82521 4.27608,-1.06922 1.031483,-0.243 1.678523,-0.36575 1.941114,-0.36575 0.525097,0 0.787671,0.28108 0.787693,0.84399 -2.2e-5,0.35599 -0.01904,0.722 -0.05647,1.09702 -0.03745,0.37503 -0.0844,0.77837 -0.140642,1.20976 z m -12.378117,20.19907 c -0.48765,0.67515 -0.862726,1.27489 -1.125285,1.80023 -0.262551,0.52434 -0.393853,1.10629 -0.393853,1.74411 -7e-6,0.78763 0.24849,1.45351 0.745501,1.99739 0.496984,0.54162 1.125275,0.98479 1.884847,1.32223 0.759563,0.33996 1.580079,0.57695 2.461559,0.71749 0.881463,0.13779 1.716048,0.21294 2.503754,0.21294 0.637648,0 1.350328,-0.0626 2.138041,-0.1954 0.787681,-0.13278 1.519116,-0.35148 2.194306,-0.66087 0.67515,-0.31115 1.24248,-0.722 1.701991,-1.23756 0.459474,-0.51858 0.689212,-1.16792 0.689237,-1.95555 -2.5e-5,-0.67515 -0.196932,-1.21452 -0.590775,-1.61785 -0.393853,-0.40309 -0.904934,-0.71248 -1.533202,-0.92817 -0.628298,-0.21294 -1.345669,-0.35699 -2.152103,-0.42037 -0.806468,-0.0626 -1.61292,-0.0977 -2.419362,-0.0977 -0.43136,0 -0.904923,0 -1.420671,0 -0.515765,0 -1.045582,-0.0576 -1.589463,-0.11022 -0.543881,-0.0576 -1.08309,-0.12777 -1.617592,-0.21295 -0.534547,-0.0852 -1.026828,-0.19039 -1.476935,-0.32266 z m 5.035643,-9.64947 c 0.731422,0 1.364397,-0.13278 1.898916,-0.39182 0.534489,-0.26479 0.970545,-0.61402 1.308144,-1.05493 0.337564,-0.43766 0.590755,-0.95623 0.759565,-1.54695 0.168749,-0.59098 0.253159,-1.21452 0.253217,-1.87063 -10e-6,-0.7508 -0.08908,-1.49584 -0.267274,-2.23688 -0.178194,-0.74078 -0.454809,-1.40641 -0.829898,-1.99738 -0.375127,-0.59072 -0.858046,-1.06421 -1.448802,-1.42044 -0.590786,-0.35674 -1.289402,-0.53486 -2.095844,-0.53486 -0.731445,2.5e-4 -1.359725,0.13528 -1.884848,0.40809 -0.525154,0.27182 -0.956497,0.63282 -1.294079,1.083 -0.337621,0.44993 -0.586088,0.97527 -0.745498,1.57551 -0.159405,0.59999 -0.239145,1.22829 -0.239095,1.88465 -5e-6,0.73177 0.0844,1.46303 0.253216,2.19479 0.1688,0.73102 0.436028,1.38788 0.801763,1.96908 0.365737,0.58146 0.839273,1.05043 1.420671,1.40641 0.581389,0.35724 1.28469,0.53586 2.109909,0.53586 z M 57.566862,969.11703 c 1.012754,-0.28108 1.950486,-0.52007 2.813207,-0.71723 0.862714,-0.19791 1.626971,-0.36125 2.292769,-0.49252 0.665781,-0.13278 1.20967,-0.22547 1.631661,-0.28133 0.421969,-0.0576 0.698604,-0.0852 0.829896,-0.0852 0.600142,0 0.900216,0.33745 0.900229,1.0126 l 0,19.2982 c -1.3e-5,0.44943 -0.225041,0.71273 -0.675173,0.78813 -0.31884,0.0576 -0.661112,0.11023 -1.026819,0.15532 -0.365737,0.0576 -0.717375,0.0852 -1.054956,0.11524 -0.337622,0 -0.647045,0.0576 -0.92836,0.0576 -0.281332,0 -0.496984,0 -0.647034,0 -0.450142,0 -0.675178,-0.23549 -0.675173,-0.70346 l 0,-15.33199 c -5e-6,-0.99381 -0.15943,-1.67371 -0.478258,-2.03947 -0.31884,-0.36601 -0.815834,-0.54864 -1.491002,-0.54864 -0.206327,0 -0.407909,0 -0.604837,0 -0.196933,0 -0.436025,0.0401 -0.717368,0.0977 z m 8.636554,-10.32435 c -1e-5,1.0128 -0.267274,1.74421 -0.801763,2.1943 -0.534549,0.44998 -1.308156,0.67519 -2.320903,0.67519 -0.843967,0 -1.491001,-0.25295 -1.941113,-0.75959 -0.450142,-0.50643 -0.675173,-1.20963 -0.675168,-2.1099 -5e-6,-1.01269 0.276607,-1.73945 0.829895,-2.18026 0.553273,-0.44074 1.336267,-0.66107 2.349031,-0.66107 0.843955,0 1.481615,0.24826 1.912981,0.74547 0.431361,0.49723 0.64703,1.19567 0.64704,2.09586 z m -37.13436,-2.53189 c 1.650412,-0.26272 3.441488,-0.51564 5.373227,-0.75957 1.93173,-0.24376 4.107276,-0.36586 6.526648,-0.36586 0.900216,0 1.84264,0.0403 2.827276,0.11223 0.984603,0.0749 1.95516,0.21094 2.91167,0.4079 0.956471,0.19716 1.866071,0.47821 2.72881,0.84394 0.862696,0.36586 1.626954,0.83934 2.29277,1.42067 0.665763,0.58143 1.190898,1.28939 1.575394,2.124 0.384461,0.8346 0.576681,1.81453 0.576709,2.93978 -2.8e-5,0.82529 -0.140692,1.64574 -0.421969,2.46168 -0.281332,0.81568 -0.698639,1.58478 -1.251882,2.30677 -0.553273,0.722 -1.23783,1.37385 -2.053642,1.95505 -0.815849,0.58145 -1.758272,1.05042 -2.827276,1.40666 l 0,0.11274 c 0.318838,0.0576 0.740797,0.15532 1.265946,0.29561 0.5251,0.14029 1.083068,0.34697 1.673858,0.61903 0.590756,0.27181 1.186214,0.61427 1.786389,1.02687 0.600125,0.41236 1.139329,0.90964 1.617596,1.49084 0.478203,0.5812 0.867381,1.26086 1.16748,2.03947 0.300056,0.77837 0.450084,1.67347 0.450142,2.68657 -2.3e-5,0.39156 -0.04667,0.90512 -0.140641,1.53292 -0.09379,0.62855 -0.295389,1.29919 -0.604837,2.01192 -0.309504,0.71272 -0.750216,1.42996 -1.322205,2.15195 -0.572057,0.722 -1.336302,1.37359 -2.292772,1.9548 -0.956511,0.58195 -2.138057,1.05568 -3.544642,1.42094 -1.406622,0.36876 -3.085164,0.54713 -5.03564,0.54713 -0.881485,0 -1.664494,0 -2.349031,-0.0576 -0.684557,-0.0576 -1.35973,-0.0852 -2.025514,-0.13778 -0.665798,-0.0576 -1.359725,-0.10271 -2.081772,-0.13779 -0.722065,-0.0576 -1.561338,-0.0576 -2.517823,-0.0576 -0.450145,0 -0.675175,-0.23548 -0.675168,-0.70345 l 0,-27.85056 c -7e-6,-0.93775 -0.206327,-1.56131 -0.618906,-1.87083 -0.412637,-0.30939 -0.947114,-0.46436 -1.603528,-0.46436 -0.375129,5e-5 -0.787701,0.0288 -1.237815,0.0842 z m 8.861607,29.9604 c 0.225041,0.0576 0.51104,0.11023 0.858031,0.15533 0.346954,0.0576 0.717358,0.0852 1.111216,0.12776 0.393853,0.0576 0.801752,0.0626 1.223744,0.0852 0.421968,0 0.820506,0 1.195617,0 1.369077,0 2.513116,-0.20292 3.432114,-0.60501 0.918962,-0.40333 1.650397,-0.91439 2.1943,-1.53317 0.543881,-0.61878 0.928345,-1.28942 1.153421,-2.01116 0.225041,-0.722 0.337564,-1.39264 0.337564,-2.01142 -1.8e-5,-1.51914 -0.239146,-2.77124 -0.717366,-3.75577 -0.478257,-0.98479 -1.153435,-1.7629 -2.025513,-2.33509 -0.872111,-0.57193 -1.922378,-0.96575 -3.150794,-1.18144 -1.228445,-0.21545 -2.583476,-0.32393 -4.065083,-0.32393 l -0.787701,0 c -0.131297,0 -0.257882,0 -0.379794,0 -0.121902,0 -0.248489,0 -0.379796,0.0301 z m 0,-15.61307 c 0.187538,0 0.370404,0 0.548606,0 0.178143,0 0.35162,0 0.520432,0 1.556628,0 2.916348,-0.12275 4.079153,-0.36576 1.162777,-0.243 2.123955,-0.6283 2.883538,-1.15364 0.75955,-0.52483 1.326879,-1.20474 1.701991,-2.03947 0.375071,-0.83448 0.562607,-1.85208 0.562665,-3.05232 -1.8e-5,-1.18149 -0.196933,-2.18958 -0.590776,-3.02418 -0.393853,-0.83456 -0.942441,-1.51907 -1.645722,-2.05361 -0.703319,-0.53468 -1.547286,-0.92368 -2.53189,-1.16751 -0.984636,-0.24376 -2.067721,-0.36586 -3.249257,-0.36586 -0.806464,7e-5 -1.387858,0.0576 -1.744186,0.16885 -0.356345,0.11223 -0.534547,0.44996 -0.534489,1.01275 z"
           style="font-family:Nyala;-inkscape-font-specification:Nyala;fill:#e3009a;fill-opacity:1"
           id="path2996" />
        <path
           inkscape:connector-curvature="0"
           d="m 88.073262,1004.2162 c 0.09374,-0.243 0.206252,-0.4264 0.337564,-0.5474 0.131246,-0.1203 0.328172,-0.218 0.590773,-0.2939 0.281275,-0.075 0.571997,-0.1378 0.872095,-0.1954 0.300057,-0.058 0.590751,-0.1027 0.872093,-0.1378 0.281333,-0.058 0.539157,-0.07 0.77363,-0.098 0.234435,0 0.417304,-0.058 0.548606,-0.058 0.337563,0 0.506373,0.1153 0.506373,0.34 -2.3e-5,0.1328 -0.04667,0.2881 -0.140641,0.4782 -0.675196,1.332 -1.373807,2.7337 -2.095844,4.2057 -0.722075,1.4728 -1.44882,2.9632 -2.180237,4.4733 -0.731449,1.5096 -1.448814,3.015 -2.152103,4.5153 -0.703319,1.5001 -1.373797,2.9441 -2.011444,4.332 -0.637673,1.3879 -1.223762,2.6963 -1.758258,3.9246 -0.534489,1.2283 -0.9987,2.3208 -1.392536,3.2773 -0.337621,0.844 -0.731447,1.7722 -1.181549,2.7849 -0.450142,1.0129 -0.998695,1.9553 -1.645729,2.8276 -0.647045,0.8718 -1.411295,1.5988 -2.292765,2.1803 -0.881472,0.5812 -1.92236,0.8715 -3.12266,0.8715 -0.487649,0 -0.928359,-0.075 -1.322207,-0.2254 -0.393853,-0.1504 -0.731432,-0.357 -1.012752,-0.6186 -0.281332,-0.265 -0.496984,-0.5646 -0.647042,-0.9006 -0.150036,-0.3399 -0.225041,-0.7034 -0.225041,-1.097 0,-0.2996 0.05186,-0.6143 0.154745,-0.9425 0.103139,-0.3284 0.276608,-0.6235 0.520433,-0.8863 0.431358,0.243 0.84396,0.4149 1.237813,0.5186 0.393852,0.1027 0.806447,0.1553 1.237807,0.1553 0.525155,0 1.040888,-0.085 1.547266,-0.2535 0.506374,-0.1679 1.003375,-0.461 1.491,-0.8861 0.487592,-0.4206 0.979931,-0.9893 1.476937,-1.7017 0.496984,-0.7127 0.998678,-1.6226 1.505064,-2.7286 l 1.631661,-3.601 -7.004888,-16.0352 c -0.375129,-0.8815 -0.768947,-1.4728 -1.181546,-1.7724 -0.412637,-0.2996 -0.909609,-0.4492 -1.491002,-0.4492 -0.187539,0 -0.384461,0 -0.590773,0 -0.206328,0 -0.421969,0.058 -0.64704,0.085 l -0.1688,-1.3503 c 0.768947,-0.2254 1.547269,-0.4321 2.334967,-0.6188 0.787696,-0.1904 1.519128,-0.3514 2.194303,-0.4955 0.675166,-0.1378 1.247187,-0.248 1.716058,-0.3227 0.468868,-0.075 0.768937,-0.1152 0.900229,-0.1152 0.28133,0 0.487589,0.088 0.618899,0.2651 0.131297,0.1778 0.262551,0.4263 0.393853,0.7455 l 5.429496,14.01 0.112533,0 z m -37.090153,0.844 c 0.975241,-0.3918 1.936419,-0.7411 2.883537,-1.0407 0.947109,-0.2996 1.837956,-0.5471 2.672549,-0.7455 0.83458,-0.1954 1.59414,-0.3455 2.2787,-0.4492 0.684535,-0.1027 1.251864,-0.1553 1.701991,-0.1553 1.350328,0 2.484987,0.1553 3.403985,0.4664 0.918963,0.3112 1.659776,0.8022 2.222434,1.4773 0.562607,0.6754 0.96585,1.5332 1.209682,2.5744 0.24378,1.0404 0.356287,2.2925 0.337561,3.7553 l -0.140641,9.1709 c -0.01904,0.5815 0.01904,1.1254 0.112508,1.6317 0.09374,0.507 0.196933,1.0038 0.309448,1.4911 0.01904,0 0.02823,0.093 0.02823,0.2254 -1.8e-5,0.2824 -0.187589,0.4495 -0.562663,0.5071 -0.24383,0.058 -0.52049,0.1102 -0.829898,0.1553 -0.309446,0.058 -0.623614,0.085 -0.942424,0.1152 -0.318837,0 -0.637677,0.058 -0.956493,0.058 -0.318837,0 -0.600165,0 -0.843959,0 -0.206327,0 -0.36107,-0.058 -0.464201,-0.1679 -0.103189,-0.1152 -0.182879,-0.2823 -0.239095,-0.507 l -0.365738,-1.3506 c -0.71269,0.3169 -1.444125,0.6143 -2.1943,0.8861 -0.750203,0.2708 -1.467569,0.507 -2.152103,0.7037 -0.68456,0.1954 -1.308156,0.3512 -1.870784,0.4665 -0.562664,0.1152 -1.022146,0.1678 -1.378473,0.1678 -0.994006,0 -1.856727,-0.1854 -2.588154,-0.5474 -0.731439,-0.3627 -1.331587,-0.8249 -1.800455,-1.3781 -0.468866,-0.5529 -0.815832,-1.1631 -1.040888,-1.8285 -0.225041,-0.6661 -0.337561,-1.2987 -0.337561,-1.8989 0,-1.0695 0.192248,-1.9741 0.576709,-2.7149 0.384461,-0.741 0.904911,-1.3551 1.56133,-1.8426 0.581394,-0.4321 1.261251,-0.7876 2.039578,-1.0692 0.778314,-0.2823 1.636345,-0.5013 2.574084,-0.6609 0.937729,-0.1603 1.950481,-0.2765 3.038268,-0.3514 1.087762,-0.075 2.231796,-0.1328 3.432113,-0.1679 l 0.02823,-0.957 c 0.01904,-0.8625 -0.03284,-1.6364 -0.154746,-2.3208 -0.121902,-0.6844 -0.342288,-1.2611 -0.661103,-1.7301 -0.318838,-0.4667 -0.750199,-0.8249 -1.294075,-1.0687 -0.543881,-0.243 -1.228443,-0.3687 -2.053639,-0.3687 -1.012767,0 -2.067723,0.1102 -3.164865,0.3399 -1.097151,0.2255 -2.349031,0.5647 -3.755631,1.0129 z m 11.646683,8.8899 c -0.881485,0.058 -1.706691,0.1102 -2.475621,0.1553 -0.768959,0.058 -1.472258,0.1152 -2.109908,0.2129 -0.63767,0.093 -1.20031,0.2355 -1.687927,0.4379 -0.487647,0.1955 -0.881478,0.4723 -1.181546,0.8303 -0.225041,0.265 -0.412635,0.5904 -0.562663,0.9845 -0.150035,0.3918 -0.225041,0.825 -0.225041,1.2939 -5e-6,0.3918 0.06095,0.7969 0.182879,1.21 0.121902,0.4149 0.337564,0.7922 0.647035,1.1391 0.309448,0.3458 0.726737,0.6331 1.251876,0.8578 0.5251,0.2255 1.190916,0.34 1.997381,0.34 0.112533,0 0.295389,0 0.548606,-0.058 0.253156,-0.058 0.562604,-0.098 0.928359,-0.1854 0.36568,-0.085 0.773619,-0.2029 1.223744,-0.3515 0.450084,-0.1503 0.90959,-0.34 1.378474,-0.5647 z M 34.20031,991.72582 c 1.012754,-0.1904 1.969242,-0.34572 2.869476,-0.47824 0.900218,-0.13278 1.701983,-0.23549 2.405289,-0.31115 0.703301,-0.0752 1.289385,-0.13277 1.758258,-0.16785 0.468866,-0.0576 0.768935,-0.0576 0.900226,-0.0576 0.600143,0 0.900217,0.29963 0.900227,0.90012 l 0,27.5132 c -10e-6,2.4007 -0.135982,4.5106 -0.40791,6.3301 -0.27194,1.8188 -0.79708,3.4321 -1.575394,4.8385 -0.778326,1.4061 -1.866101,2.6489 -3.263321,3.7274 -1.397233,1.0779 -3.221132,2.077 -5.471699,2.9959 l -0.815826,-1.7439 c 1.575399,-0.8439 2.794453,-1.7676 3.657174,-2.7712 0.862714,-1.0038 1.490994,-2.1288 1.884847,-3.3756 0.393853,-1.2473 0.623591,-2.6307 0.689237,-4.1498 0.06564,-1.5189 0.09845,-3.2162 0.09845,-5.0916 l 0,-24.13744 c -7e-6,-0.52433 -0.05186,-0.95197 -0.154745,-1.28015 -0.103139,-0.32843 -0.253217,-0.58596 -0.450142,-0.77335 -0.196933,-0.1904 -0.431361,-0.31691 -0.703301,-0.39181 -0.271941,-0.0752 -0.576712,-0.11023 -0.914291,-0.11023 -0.412637,0 -0.825213,0 -1.237815,0.0852 z"
           style="font-family:Nyala;-inkscape-font-specification:Nyala;fill:#e3009a;fill-opacity:1"
           id="path3002" />
      </g>
    </g>
  </g>
</svg>
